<svg width="752" height="230" viewBox="0 0 752 230" fill="none" xmlns="http://www.w3.org/2000/svg">
<path d="M79.3568 156.065C30.2312 152.274 13.2261 66.9645 0 66.9645V230H752V112.463C736.884 32.0824 709.173 18.3066 697.206 21.4662C638.255 26.016 649.97 156.065 597.065 156.065C556.253 156.065 532.824 53.6941 500.704 53.6941C462.915 53.6941 425.126 193.981 376 193.981C294.754 193.98 264.523 -12.6575 198.392 0.612859C158.714 0.612859 136.04 156.065 79.3568 156.065Z" fill="white" fill-opacity="0.3"/>
<path d="M672.643 156.065C721.769 152.274 738.774 66.9645 752 66.9645V230H0V112.463C15.1156 32.0824 42.8275 18.3066 54.794 21.4662C113.745 26.016 102.03 156.065 154.935 156.065C195.747 156.065 219.176 53.6941 251.296 53.6941C289.085 53.6941 326.874 193.981 376 193.981C457.246 193.98 487.477 -12.6575 553.608 0.612859C593.286 0.612859 615.96 156.065 672.643 156.065Z" fill="white" fill-opacity="0.2"/>
</svg>
